<?xml version="1.0" standalone="no"?>
<!DOCTYPE svg PUBLIC "-//W3C//DTD SVG 1.1//EN" "http://www.w3.org/Graphics/SVG/1.1/DTD/svg11.dtd" >
<svg xmlns="http://www.w3.org/2000/svg" xmlns:xlink="http://www.w3.org/1999/xlink" version="1.1">
<metadata></metadata>
<defs>
<font id="futuragreekmedium" horiz-adv-x="1144" >
<font-face units-per-em="2048" ascent="1556" descent="-492" />
<missing-glyph horiz-adv-x="520" />
<glyph horiz-adv-x="0" />
<glyph unicode="&#xd;" horiz-adv-x="520" />
<glyph unicode=" "  horiz-adv-x="520" />
<glyph unicode="&#x09;" horiz-adv-x="520" />
<glyph unicode="&#xa0;" horiz-adv-x="520" />
<glyph unicode="!" horiz-adv-x="600" d="M176 96q0 53 36 89t87 36t87 -36t36 -89q0 -51 -36 -87t-87 -36t-87 36t-36 87zM199 305v1061h200v-1061h-200z" />
<glyph unicode="&#x22;" horiz-adv-x="743" d="M96 1366h226l-37 -549h-152zM420 1366h227l-39 -549h-151z" />
<glyph unicode="#" d="M45 420v153h223l33 254h-205v156h223l50 395l153 -20l-45 -375h260l49 395l156 -20l-47 -375h199v-156h-215l-33 -254h196v-155h-217l-51 -424l-156 20l52 404h-262l-54 -424l-157 20l51 406h-203zM426 573h262l31 254h-262z" />
<glyph unicode="$" d="M125 381l194 39q41 -135 98.5 -190.5t160.5 -55.5q98 0 161.5 63.5t63.5 161.5q0 76 -43 124t-107.5 85t-140.5 70t-140.5 78t-107.5 111.5t-43 168.5q0 129 79 219.5t224 128.5v175h154v-175q68 -12 118 -34.5t86 -53t58.5 -67.5t34.5 -74l-172 -96q-41 78 -87 109.5 t-112 31.5q-84 0 -134 -45t-50 -123q0 -57 44 -95t108.5 -73t141.5 -70.5t141.5 -87t108.5 -124.5t44 -179q0 -74 -23.5 -141t-67 -122.5t-104.5 -95.5t-135 -58v-185h-154v179q-182 29 -271 129t-128 272z" />
<glyph unicode="%" horiz-adv-x="1658" d="M68 1057q0 66 26.5 125t70.5 103t104.5 69.5t127.5 25.5q68 0 127.5 -25.5t104.5 -69.5t70.5 -103t25.5 -125t-26.5 -124.5t-70.5 -101.5t-103.5 -68.5t-127.5 -25.5t-128 25.5t-104 68.5t-70.5 101.5t-26.5 124.5zM221 1057q0 -37 14.5 -69t38 -55.5t55 -36.5t68.5 -13 q72 0 123 51t51 123q0 74 -51 125t-123 51q-37 0 -68.5 -14.5t-55 -38t-38 -55t-14.5 -68.5zM389 37l782 1354l97 -54l-783 -1360zM932 309q0 66 26.5 124.5t70.5 102.5t104.5 69.5t128.5 25.5t127 -25.5t104 -69.5t70.5 -102.5t25.5 -124.5t-26.5 -124t-70.5 -102 t-103.5 -69.5t-126.5 -25.5q-68 0 -128.5 25.5t-104.5 69.5t-70.5 102.5t-26.5 123.5zM1085 309q0 -37 14.5 -68.5t38 -55t55.5 -37t69 -13.5q72 0 123 51t51 123t-51.5 123t-122.5 51q-37 0 -69 -13t-55.5 -36.5t-38 -55.5t-14.5 -69z" />
<glyph unicode="&#x26;" horiz-adv-x="1323" d="M109 383q0 96 51 182t145 152q29 18 55.5 35.5t51.5 40.5q-66 72 -99.5 144.5t-33.5 139.5q0 141 89 227.5t234 86.5q72 0 132.5 -22.5t103.5 -61.5t67.5 -94.5t24.5 -118.5q0 -55 -20.5 -103.5t-54.5 -89.5t-75 -75.5t-82 -65.5l246 -297q41 41 79 86t73 92l135 -139 q-37 -49 -78 -97.5t-84 -91.5l254 -313h-256l-137 168q-78 -84 -178.5 -139.5t-216.5 -55.5q-90 0 -168 32t-135.5 87t-90 130t-32.5 161zM307 383q0 -43 18.5 -83t50.5 -71.5t71.5 -50t82.5 -18.5q63 0 128 36.5t147 120.5l-268 328q-33 -23 -73 -49.5t-75 -58t-58.5 -70.5 t-23.5 -84zM471 1102q0 -31 11.5 -56.5t27.5 -49t34.5 -46t35.5 -45.5q27 18 54.5 39t50 44.5t36.5 51t14 64.5q0 51 -38 83t-97 32q-55 0 -92 -34t-37 -83z" />
<glyph unicode="'" horiz-adv-x="419" d="M96 1366h226l-37 -549h-152z" />
<glyph unicode="(" horiz-adv-x="663" d="M164 565q0 244 44 483.5t148 460.5l185 -71q-47 -113 -80 -217.5t-54.5 -209t-30.5 -214t-9 -232.5t9 -232.5t30.5 -214t54.5 -209t80 -216.5l-185 -72q-104 219 -148 461t-44 483z" />
<glyph unicode=")" horiz-adv-x="663" d="M164 -307q47 113 79.5 217t54 208.5t31 214t9.5 232.5t-9.5 232.5t-31 214t-54 209t-79.5 217.5l184 71q104 -221 148.5 -460.5t44.5 -483.5q0 -242 -44 -483.5t-149 -460.5z" />
<glyph unicode="*" d="M227 1171l56 170l223 -88l-14 240h178l-15 -240l224 88l55 -170l-232 -61l152 -184l-143 -105l-131 201l-129 -201l-144 105l152 184z" />
<glyph unicode="+" d="M111 629v164h389v381h164v-381h389v-164h-389v-383h-164v383h-389z" />
<glyph unicode="," horiz-adv-x="518" d="M18 -264l209 520l179 -70l-252 -505z" />
<glyph unicode="-" horiz-adv-x="395" d="M0 350v174h395v-174h-395z" />
<glyph unicode="." horiz-adv-x="518" d="M137 96q0 53 36 89t87 36t87 -36t36 -89q0 -51 -36 -87t-87 -36t-87 36t-36 87z" />
<glyph unicode="/" horiz-adv-x="937" d="M-14 -301l780 1808l166 -71l-782 -1811z" />
<glyph unicode="0" d="M90 682q0 154 36 284t100.5 224t152.5 146.5t192 52.5t193.5 -52.5t154 -146.5t100.5 -224t36 -284t-36 -283t-100.5 -222t-153.5 -146.5t-194 -53.5q-104 0 -192 53.5t-152.5 146.5t-100.5 222t-36 283zM293 684q0 -111 21.5 -206t58.5 -164.5t88 -108.5t110 -39 q61 0 112.5 39t88.5 107.5t58.5 163.5t21.5 208t-21.5 207t-58.5 163.5t-88 108.5t-113 39q-61 0 -112 -39t-88 -108.5t-57.5 -163.5t-20.5 -207z" />
<glyph unicode="1" d="M276 1174l113 192h330v-1366h-207v1174h-236z" />
<glyph unicode="2" d="M68 0l473 573q33 39 73.5 87.5t77.5 100.5t62.5 107.5t25.5 108.5q0 47 -17.5 88t-49 71.5t-74.5 48t-92 17.5q-205 0 -236 -246h-205q10 92 42 171t84.5 137.5t128 91.5t176.5 33q94 0 175 -31t140 -85t94 -128t35 -160q0 -59 -12.5 -111.5t-45 -112t-90 -135 t-145.5 -182.5l-211 -249h508v-195h-917z" />
<glyph unicode="3" d="M98 371h199q16 -98 77.5 -151.5t162.5 -53.5q49 0 91 17.5t72.5 49t48 74.5t17.5 94q0 123 -63.5 176.5t-213.5 57.5v176q53 0 100.5 7t82.5 28.5t55.5 59.5t20.5 98q0 88 -58.5 143t-150.5 55q-88 0 -132.5 -41t-66.5 -143h-207q33 186 131 278.5t293 92.5 q84 0 155.5 -28t124 -77t82 -116.5t29.5 -147.5q0 -195 -149 -299q170 -99 170 -328q0 -92 -33 -167.5t-92.5 -131t-140 -86.5t-179.5 -31q-188 0 -296.5 104.5t-129.5 289.5z" />
<glyph unicode="4" d="M39 195l876 1271v-1085h146v-186h-146v-195h-206v195h-670zM395 381h314v457z" />
<glyph unicode="5" d="M57 233l156 132q33 -55 64.5 -94.5t66.5 -62t75 -32.5t91 -10q59 0 111.5 23.5t90.5 65.5t60.5 97.5t22.5 120.5q0 61 -21.5 115.5t-60.5 94.5t-90.5 63.5t-110.5 23.5q-82 0 -136 -26.5t-112 -94.5h-67l215 717h563v-192h-420l-68 -228q18 4 28.5 4h25.5 q100 0 184 -34.5t143.5 -99t93 -154t33.5 -195.5q0 -104 -37.5 -193.5t-105.5 -155t-159 -103.5t-195 -38q-152 0 -254.5 60.5t-186.5 195.5z" />
<glyph unicode="6" d="M121 434q0 72 33.5 158t99.5 174l477 647l152 -113l-326 -444q27 4 41 5t33 1q84 0 157.5 -33.5t129 -92t88 -136.5t32.5 -166q0 -94 -35.5 -177t-98 -145.5t-146.5 -98.5t-178 -36t-178.5 36t-146.5 98.5t-98 145.5t-36 177zM322 424q0 -53 20 -100.5t55 -82t82 -55 t101 -20.5q53 0 100 20.5t82 55t55.5 82t20.5 100.5t-20.5 99t-55.5 81t-82 55.5t-100 20.5t-100.5 -20.5t-82.5 -55.5t-55 -81t-20 -99z" />
<glyph unicode="7" d="M109 57l679 1117h-671v192h1018l-863 -1413z" />
<glyph unicode="8" d="M152 393q0 109 48 192t136 126q-150 106 -150 288q0 84 31 155t84 123t127 82t160 30q84 0 156.5 -30t125 -82t82 -123t29.5 -155q0 -176 -150 -288q84 -43 131.5 -128.5t47.5 -191.5q0 -92 -32 -168t-88 -130t-135 -85t-173 -31q-92 0 -171 32t-136.5 87.5t-90 131 t-32.5 165.5zM354 393q0 -47 17.5 -88t48.5 -71.5t71.5 -49t88.5 -18.5q47 0 88 18.5t71.5 49t49 71.5t18.5 88t-17.5 88t-48 72t-72.5 49.5t-89 18.5t-88 -18.5t-72 -49.5t-48.5 -72t-17.5 -88zM379 997q0 -86 59.5 -144t145.5 -58t145 58t59 144t-59 145.5t-145 59.5 t-145.5 -59.5t-59.5 -145.5z" />
<glyph unicode="9" d="M121 934q0 94 36 177t98 144.5t145 97.5t180 36q94 0 178 -36t146.5 -97.5t98 -144.5t35.5 -177q0 -72 -33.5 -158t-99.5 -174l-477 -649l-152 113l326 444q-27 -4 -41 -5t-33 -1q-84 0 -157.5 33.5t-129 92t-88 137.5t-32.5 167zM322 944q0 -53 20 -100t55 -82t82 -55.5 t101 -20.5q53 0 100 20.5t82 55.5t55.5 82t20.5 100t-20.5 100.5t-55.5 82t-82 55t-100 20.5t-100.5 -20.5t-82.5 -55t-55 -82t-20 -100.5z" />
<glyph unicode=":" horiz-adv-x="518" d="M137 96q0 53 36 89t87 36t87 -36t36 -89q0 -51 -36 -87t-87 -36t-87 36t-36 87zM137 762q0 51 36 87t87 36t87 -36t36 -87t-36 -87t-87 -36t-87 36t-36 87z" />
<glyph unicode=";" horiz-adv-x="518" d="M18 -264l209 520l179 -70l-252 -505zM178 762q0 51 36 87t87 36q53 0 88 -36t35 -87t-36 -87t-87 -36t-87 36t-36 87z" />
<glyph unicode="&#x3c;" horiz-adv-x="1024" d="M68 610v131l886 416v-149l-727 -332l727 -332v-149z" />
<glyph unicode="=" d="M111 492v149h942v-149h-942zM111 778v150h942v-150h-942z" />
<glyph unicode="&#x3e;" horiz-adv-x="1024" d="M68 195v149l727 332l-727 332v149l886 -416v-131z" />
<glyph unicode="?" horiz-adv-x="886" d="M111 1034.5v30.5q0 70 24.5 129t69.5 103t106.5 69t132.5 25q70 0 131.5 -25t107.5 -69t71.5 -102t25.5 -126q0 -96 -32.5 -154.5t-82 -96.5t-106.5 -59.5t-106.5 -41t-82 -45t-32.5 -68.5t29.5 -73.5t72.5 -30.5q53 0 79 32.5t30 104.5h199q-2 -37 -5.5 -63.5t-9.5 -48 t-15 -41t-24 -40.5q-39 -59 -109.5 -95t-142.5 -36q-63 0 -118.5 23.5t-96.5 64.5t-64.5 95.5t-23.5 117.5q0 88 33 141.5t82 85t105.5 50t105.5 40t82 52.5t33 88t-37 93t-97 36q-61 0 -98 -36t-37 -95q0 -16 2 -31.5t9 -44.5h-207q-4 27 -4 41.5zM324 96q0 53 35.5 89 t86.5 36t87 -36t36 -89q0 -51 -35.5 -87t-87.5 -36q-51 0 -86.5 36t-35.5 87z" />
<glyph unicode="@" horiz-adv-x="1593" d="M94 682q0 150 56.5 280t154.5 225t232.5 149.5t287.5 54.5q143 0 267.5 -47.5t213.5 -129t140 -194.5t51 -244q0 -98 -28.5 -187t-77 -156.5t-111.5 -106.5t-135 -39q-111 0 -154 108q-59 -63 -114.5 -87.5t-137.5 -24.5q-72 0 -131 28.5t-103 79.5t-68.5 121t-24.5 152 q0 84 28.5 155.5t79.5 124.5t121 83t152 30q76 0 132 -29t103 -88l10 100h136l-56 -465q-6 -53 -6 -98q0 -61 51 -61q41 0 78 29.5t65.5 78.5t45 115t16.5 137q0 106 -41 196.5t-113.5 156t-173 102.5t-219.5 37q-121 0 -225 -45t-182 -125t-122 -187.5t-44 -230.5 q0 -131 46 -236.5t127 -180.5t190.5 -116t236.5 -41q68 0 118 4.5t96 16.5t97 32.5t121 53.5l12 8l47 -127q-111 -66 -237.5 -93.5t-253.5 -27.5q-156 0 -293 50.5t-239.5 142.5t-162 223t-59.5 293zM594 643q0 -43 12 -81t34 -65.5t49.5 -44t60.5 -16.5q53 0 97 20.5 t76.5 57.5t50 88.5t17.5 110.5q0 37 -15 68.5t-42 56t-63.5 38t-77.5 13.5q-86 0 -142.5 -69.5t-56.5 -176.5z" />
<glyph unicode="A" horiz-adv-x="1341" d="M8 0l676 1452l651 -1452h-225l-143 332h-584l-154 -332h-221zM469 526h414l-203 463z" />
<glyph unicode="B" horiz-adv-x="1071" d="M164 0v1366h205q123 0 197.5 -17.5t129.5 -54.5q72 -47 114 -129t42 -186q0 -86 -27.5 -139.5t-85.5 -104.5q109 -37 172.5 -128t63.5 -214q0 -102 -35 -171.5t-102 -123.5q-35 -27 -69 -45t-76 -30.5t-95 -17.5t-123 -5h-311zM371 195h60.5t77.5 1t76 5t54 14 q53 25 93 63.5t40 116.5q0 49 -22.5 100.5t-104.5 86.5q-27 12 -66.5 17t-80.5 6t-76 1h-51v-411zM371 778h24q44 0 85 6q52 8 91 29t62.5 61.5t23.5 106.5q0 68 -25.5 106.5t-65.5 58t-92 25t-103 5.5v-398z" />
<glyph unicode="C" horiz-adv-x="1267" d="M94 684q0 143 57.5 272t153.5 225.5t225 153t275 56.5q55 0 101 -5.5t89 -17.5t86 -31.5t90 -46.5v-243q-49 41 -94 69.5t-90 46t-93 25.5t-103 8q-100 0 -189.5 -41t-156 -111.5t-105.5 -165t-39 -200.5q0 -109 39 -202t106.5 -161.5t160.5 -107.5t202 -39q96 0 179 36 t183 120v-250q-180 -100 -366 -101q-150 0 -280 55.5t-225 150.5t-150.5 225.5t-55.5 279.5z" />
<glyph unicode="D" horiz-adv-x="1314" d="M164 0v1366h317q80 0 144.5 -7t121 -23.5t107.5 -41t100 -61.5q129 -92 197 -234.5t68 -318.5q0 -174 -68 -314.5t-205 -234.5q-53 -37 -98 -60.5t-92 -39t-104.5 -22.5t-133.5 -7zM371 195h151q25 0 60.5 5t76.5 16t85 29.5t81 47.5q90 68 138.5 168t48.5 221 q0 123 -47 227.5t-138 165.5q-70 47 -152.5 71.5t-187.5 24.5h-116v-976z" />
<glyph unicode="E" horiz-adv-x="1024" d="M164 0v1366h754v-195h-547v-327h530v-195h-530v-454h547v-195h-754z" />
<glyph unicode="F" horiz-adv-x="919" d="M164 0v1366h682v-195h-475v-327h458v-195h-458v-649h-207z" />
<glyph unicode="G" horiz-adv-x="1525" d="M96 702q0 141 57.5 266.5t155 219.5t228.5 148.5t278 54.5q170 0 307.5 -77t247.5 -200l-147 -141q-88 117 -186.5 170t-227.5 53q-102 0 -194.5 -39t-161 -106.5t-109.5 -156.5t-41 -189q0 -113 37 -211.5t103.5 -170t161.5 -113.5t212 -42q70 0 138.5 26.5t123 73.5 t89 110.5t38.5 137.5h-340v195h566q0 -68 -3.5 -128.5t-15.5 -118.5t-36.5 -115.5t-67.5 -117.5q-92 -127 -223.5 -192.5t-268.5 -65.5q-141 0 -276 46.5t-228 138.5q-119 117 -168 248t-49 296z" />
<glyph unicode="H" horiz-adv-x="1329" d="M164 0v1366h207v-535h587v535h207v-1366h-207v637h-587v-637h-207z" />
<glyph unicode="I" horiz-adv-x="534" d="M164 0v1366h207v-1366h-207z" />
<glyph unicode="J" horiz-adv-x="743" d="M-35 41l103 176q41 -29 72.5 -39t66.5 -10q92 0 129 69.5t37 243.5v885h207v-885q0 -59 -2.5 -103t-8.5 -81t-15 -67.5t-24 -61.5q-45 -92 -131 -143.5t-188 -51.5q-72 0 -126 15.5t-120 52.5z" />
<glyph unicode="K" horiz-adv-x="1200" d="M164 0v1366h207v-545l540 545h265l-617 -618l621 -748h-277l-489 606l-43 -41v-565h-207z" />
<glyph unicode="L" horiz-adv-x="802" d="M164 0v1366h207v-1171h401v-195h-608z" />
<glyph unicode="M" horiz-adv-x="1740" d="M117 0l286 1468l469 -1060l486 1060l258 -1468h-211l-131 823l-404 -886l-393 888l-147 -825h-213z" />
<glyph unicode="N" horiz-adv-x="1529" d="M164 0v1458l995 -1040v948h207v-1450l-995 1040v-956h-207z" />
<glyph unicode="O" horiz-adv-x="1617" d="M94 678q0 147 56.5 277t153.5 226.5t227.5 153t279.5 56.5q145 0 274 -56.5t226.5 -153t154 -225.5t56.5 -274t-56.5 -274t-154 -225.5t-226.5 -153t-274 -56.5q-152 0 -282 54.5t-227 149.5t-152.5 224t-55.5 277zM301 678q0 -106 40 -199.5t108.5 -162t160.5 -108.5 t199 -40q104 0 196.5 40t161 109.5t107.5 163t39 199.5q0 111 -39 205t-106.5 162.5t-160 108.5t-198.5 40q-109 0 -201 -40t-160.5 -109.5t-107.5 -164t-39 -204.5z" />
<glyph unicode="P" horiz-adv-x="976" d="M164 0v1366h233q80 0 137.5 -4t100.5 -14.5t76.5 -26.5t68.5 -43q70 -53 110 -138t40 -179q0 -92 -33 -168t-93.5 -128.5t-146.5 -81t-192 -28.5h-94v-555h-207zM371 745q61 0 124.5 4.5t116 26t86 66.5t33.5 125q0 76 -34.5 117.5t-89 62t-118 25t-118.5 4.5v-431z" />
<glyph unicode="Q" horiz-adv-x="1617" d="M96 678q0 147 56.5 277t152.5 227.5t227.5 153t278.5 55.5q145 0 274 -56.5t226.5 -153t155 -225.5t57.5 -272q0 -78 -10.5 -143.5t-34 -124t-60.5 -112.5t-90 -109l225 -222h-260l-106 111q-86 -53 -182.5 -82t-198.5 -29q-147 0 -277.5 55.5t-226.5 150.5t-151.5 223 t-55.5 276zM303 680q0 -111 39 -204t106.5 -161.5t159.5 -107.5t201 -39q55 0 119.5 16.5t113.5 42.5l-321 314h266l199 -199q70 74 99.5 151.5t29.5 186.5q0 111 -39 205t-106.5 162.5t-161 108.5t-199.5 40q-109 0 -202 -39t-160.5 -107.5t-105.5 -163.5t-38 -206z" />
<glyph unicode="R" horiz-adv-x="1089" d="M164 0v1366h242q133 0 214.5 -18.5t145.5 -61.5q76 -53 119 -138t43 -181q0 -74 -21.5 -137.5t-60.5 -113.5t-95.5 -85t-123.5 -49l422 -582h-252l-389 559h-37v-559h-207zM371 739q57 0 120.5 6.5t115.5 29t86 66.5t34 122q0 76 -32.5 118.5t-85 62t-115 23.5t-123.5 4 v-432z" />
<glyph unicode="S" horiz-adv-x="1054" d="M96 377l209 45q16 -133 69.5 -193.5t157.5 -60.5q106 0 169 63.5t63 171.5q0 74 -45 122t-112.5 84t-145.5 69t-145.5 77t-112.5 107.5t-45 163.5q0 82 29.5 149.5t85 114.5t133 74t174.5 27q125 0 205.5 -54.5t150.5 -175.5l-166 -98q-47 76 -88 104.5t-104 28.5 q-96 0 -153.5 -46t-57.5 -122q0 -57 45 -94t111.5 -70t145.5 -65.5t145.5 -81.5t111.5 -121.5t45 -181.5q0 -94 -33 -175t-90 -139.5t-137 -92.5t-172 -34q-184 0 -299 104.5t-144 299.5z" />
<glyph unicode="T" horiz-adv-x="874" d="M20 1171v195h834v-195h-313v-1171h-207v1171h-314z" />
<glyph unicode="U" horiz-adv-x="1337" d="M164 485v881h207v-823q0 -92 9 -142.5t34 -93.5q37 -66 105.5 -102.5t150.5 -36.5q80 0 149.5 37t106.5 102q25 43 34 93.5t9 142.5v823h207v-881q0 -111 -38 -205t-105.5 -161.5t-161 -106.5t-201.5 -39q-109 0 -202 39t-160.5 106.5t-105.5 162t-38 204.5z" />
<glyph unicode="V" horiz-adv-x="1224" d="M6 1366h225l377 -946l383 946h226l-613 -1468z" />
<glyph unicode="W" horiz-adv-x="1921" d="M8 1366h223l357 -913l370 979l357 -979l377 913h223l-610 -1454l-351 969l-366 -969z" />
<glyph unicode="X" horiz-adv-x="1118" d="M20 0l431 713l-377 653h233l262 -463l273 463h237l-393 -653l412 -713h-230l-303 522l-311 -522h-234z" />
<glyph unicode="Y" horiz-adv-x="1087" d="M-6 1366h237l312 -547l313 547h238l-447 -776v-590h-207v590z" />
<glyph unicode="Z" horiz-adv-x="1132" d="M61 0l670 1171h-561v195h901l-672 -1171h656v-195h-994z" />
<glyph unicode="[" horiz-adv-x="647" d="M178 -362v1857h375v-188h-172v-1483h172v-186h-375z" />
<glyph unicode="\" horiz-adv-x="937" d="M6 1436l164 71l782 -1808l-164 -74z" />
<glyph unicode="]" horiz-adv-x="647" d="M150 -176h172v1483h-172v188h374v-1857h-374v186z" />
<glyph unicode="^" horiz-adv-x="1024" d="M51 743l363 623h196l363 -623h-164l-299 504l-297 -504h-162z" />
<glyph unicode="_" horiz-adv-x="1024" d="M0 -137h1024v-135h-1024v135z" />
<glyph unicode="`" horiz-adv-x="1024" d="M174 1284l186 98l244 -321l-108 -68z" />
<glyph unicode="a" horiz-adv-x="1085" d="M84 436q0 96 30.5 178t86 142.5t130.5 94.5t161 34q82 0 142 -29t126 -96v102h198v-862h-198v90q-35 -33 -66.5 -55.5t-63.5 -35.5t-67 -19.5t-78 -6.5q-86 0 -159.5 35t-127 97.5t-84 147.5t-30.5 183zM287 428q0 -59 17.5 -110.5t50 -88t75.5 -57t96 -20.5 q111 0 178.5 76.5t67.5 199.5t-67.5 200t-178.5 77q-51 0 -95 -20.5t-75.5 -57.5t-50 -88.5t-18.5 -110.5z" />
<glyph unicode="b" horiz-adv-x="1085" d="M125 0v1493h199v-731q66 66 127 94.5t141 28.5q88 0 162.5 -34t129 -94.5t85 -142.5t30.5 -178q0 -98 -30.5 -183t-84 -147.5t-127 -97.5t-159.5 -35t-147.5 27t-126.5 90v-90h-199zM311 428q0 -123 67.5 -199.5t178.5 -76.5q51 0 95 20.5t77 57t50.5 88t17.5 110.5 t-17.5 110.5t-50.5 88.5t-77 57.5t-95 20.5q-111 0 -178.5 -77t-67.5 -200z" />
<glyph unicode="c" horiz-adv-x="862" d="M84 446q0 90 38 170t102.5 139.5t150.5 94.5t182 35q66 0 122 -14.5t116 -47.5v-264q-68 82 -121 114t-123 32q-117 0 -190.5 -77t-73.5 -198q0 -125 72.5 -201.5t191.5 -76.5q35 0 63.5 7t57 24.5t58.5 46t65 69.5v-262q-70 -37 -123.5 -50.5t-124.5 -13.5 q-100 0 -185.5 35t-146.5 98.5t-96 150.5t-35 189z" />
<glyph unicode="d" horiz-adv-x="1085" d="M84 436q0 96 30.5 178t86 142.5t130.5 94.5t161 34q80 0 141 -29t127 -94v731h198v-1493h-198v90q-66 -63 -127.5 -90t-147.5 -27t-159.5 35t-127 97.5t-84 147.5t-30.5 183zM287 428q0 -59 17.5 -110.5t50 -88t75.5 -57t96 -20.5q111 0 178.5 76.5t67.5 199.5t-67.5 200 t-178.5 77q-51 0 -95 -20.5t-75.5 -57.5t-50 -88.5t-18.5 -110.5z" />
<glyph unicode="e" horiz-adv-x="1001" d="M88 436q0 100 29.5 183t84 142.5t131.5 91.5t173 32q100 0 176 -36t126 -97.5t75.5 -144.5t25.5 -177v-47h-616q8 -104 66.5 -167.5t150.5 -63.5q39 0 78 12t72.5 33.5t60.5 51.5t39 64l158 -88q-70 -117 -169.5 -184.5t-240.5 -67.5q-96 0 -174 33t-132.5 93.5 t-84 146.5t-29.5 190zM305 545h400q-20 78 -71.5 119t-129.5 41q-72 0 -126 -43.5t-73 -116.5z" />
<glyph unicode="f" horiz-adv-x="536" d="M61 676v186h72v332q0 104 20.5 164.5t67.5 95.5q37 29 88 46.5t101 17.5q20 0 35.5 -1t31 -5.5t32.5 -10.5t40 -14v-203q-31 16 -61.5 28.5t-65.5 12.5q-53 0 -71.5 -37t-18.5 -143v-283h217v-186h-217v-676h-199v676h-72z" />
<glyph unicode="g" horiz-adv-x="1083" d="M84 424q0 98 29.5 182t83 146.5t124 97.5t154.5 35q176 0 283 -121v98h198v-889q0 -90 -16 -157.5t-61 -126.5q-59 -78 -145.5 -119t-196.5 -41q-193 0 -304.5 111.5t-113.5 308.5h196q12 -242 217 -242q117 0 171.5 65.5t54.5 202.5v121q-117 -123 -264 -123 q-90 0 -165 33t-129.5 93.5t-85 143.5t-30.5 181zM287 428q0 -123 64.5 -198.5t168.5 -75.5q113 0 179.5 74.5t66.5 203.5q0 123 -66.5 199t-175.5 76q-106 0 -171.5 -77t-65.5 -202z" />
<glyph unicode="h" horiz-adv-x="993" d="M127 0v1493h199v-705q57 53 110 75t121 22q86 0 145.5 -25.5t96.5 -73t53 -114t16 -148.5v-524h-198v526q0 94 -36 137.5t-114 43.5q-96 0 -145 -60.5t-49 -212.5v-434h-199z" />
<glyph unicode="i" horiz-adv-x="450" d="M96 1219q0 53 38 91t91 38t92 -38t39 -91t-38.5 -92.5t-92.5 -39.5q-53 0 -91 39t-38 93zM127 0v862h199v-862h-199z" />
<glyph unicode="j" horiz-adv-x="450" d="M96 1219q0 53 38 91t91 38t92 -38t39 -91t-38.5 -91t-92.5 -38q-53 0 -91 37.5t-38 91.5zM127 -469v1331h199v-1331h-199z" />
<glyph unicode="k" horiz-adv-x="901" d="M125 0v1493h199v-911l280 280h264l-370 -362l401 -500h-258l-285 362l-32 -30v-332h-199z" />
<glyph unicode="l" horiz-adv-x="450" d="M127 0v1493h199v-1493h-199z" />
<glyph unicode="m" horiz-adv-x="1431" d="M125 0v862h199v-80q29 31 52 50.5t48 32t51.5 16.5t63.5 4q66 0 124 -34t99 -93q94 127 252 127q80 0 136 -29t90 -77t49.5 -111.5t15.5 -135.5v-532h-199v479q0 123 -29.5 175.5t-101.5 52.5q-84 0 -121 -61.5t-37 -201.5v-444h-199v475q0 231 -133 232 q-86 0 -123.5 -62.5t-37.5 -200.5v-444h-199z" />
<glyph unicode="n" horiz-adv-x="995" d="M127 0v862h199v-80q59 57 109 80t122 23q86 0 145.5 -25.5t96.5 -73t53 -113t16 -145.5v-528h-198v481q0 127 -36 176.5t-124 49.5q-102 0 -143 -66t-41 -225v-416h-199z" />
<glyph unicode="o" horiz-adv-x="1083" d="M82 428q0 96 36 179t97 144.5t145 97.5t181 36q98 0 182 -36t145.5 -97.5t97 -144.5t35.5 -179t-35.5 -179t-98 -144.5t-146.5 -96.5t-180 -35t-180.5 35t-145.5 96.5t-97 144.5t-36 179zM285 428q0 -125 69.5 -200.5t186.5 -75.5t186.5 75.5t69.5 200.5q0 127 -70 202 t-186 75q-117 0 -186.5 -75t-69.5 -202z" />
<glyph unicode="p" horiz-adv-x="1083" d="M127 -469v1331h199v-94q66 66 127 91.5t147 25.5t158.5 -35t126 -97.5t84 -147.5t32.5 -183v-12q0 -89 -29 -166q-30 -82 -85.5 -141.5t-130 -94.5t-162.5 -35q-80 0 -141.5 30t-126.5 95v-567h-199zM313 430q0 -123 68 -199.5t178 -76.5q51 0 95 20.5t77 57t50.5 88 t17.5 110.5t-17.5 110.5t-50.5 88.5t-77 57.5t-95 20.5q-111 0 -178.5 -77t-67.5 -200z" />
<glyph unicode="q" horiz-adv-x="1085" d="M84 422q0 98 30.5 183t84 147.5t127 97.5t159.5 35t147.5 -25.5t127.5 -91.5v94h198v-1331h-198v567q-63 -66 -126 -95.5t-142 -29.5q-86 0 -161 35t-130.5 94.5t-86 141.5t-30.5 178zM287 430q0 -59 18.5 -110.5t50 -88t75.5 -57t95 -20.5q111 0 178.5 76.5t67.5 199.5 t-67.5 200t-178.5 77q-53 0 -96 -20.5t-75.5 -57.5t-50 -88.5t-17.5 -110.5z" />
<glyph unicode="r" horiz-adv-x="677" d="M125 0v862h199v-78q55 59 98 80t102 21q47 0 80 -10.5t84 -40.5l-92 -183q-33 23 -54.5 32t-47.5 9q-90 0 -130 -58.5t-40 -187.5v-446h-199z" />
<glyph unicode="s" horiz-adv-x="735" d="M68 186l170 78q35 -66 64.5 -89t80.5 -23q43 0 69.5 25.5t26.5 66.5q0 37 -27.5 62.5t-67.5 46t-88 41t-88 50t-67.5 73.5t-27.5 110q0 55 20.5 103t57 82t87 53.5t109.5 19.5q158 0 240 -172l-164 -86q-41 80 -96 80q-29 0 -48.5 -18.5t-19.5 -43.5q0 -29 28.5 -50.5 t70.5 -43t92.5 -46t92.5 -57t70.5 -78t28.5 -106.5t-23.5 -113.5t-65.5 -92.5t-97.5 -62.5t-118.5 -22.5q-221 0 -309 213z" />
<glyph unicode="t" horiz-adv-x="495" d="M47 676v186h84v316h199v-316h153v-186h-153v-676h-199v676h-84z" />
<glyph unicode="u" horiz-adv-x="987" d="M125 362v500h199v-495q0 -111 41 -163t129 -52q86 0 127 52t41 163v495h198v-500q0 -102 -19.5 -164.5t-70.5 -115.5q-104 -109 -276 -109q-174 0 -279 109q-51 53 -70.5 115.5t-19.5 164.5z" />
<glyph unicode="v" horiz-adv-x="909" d="M8 862h223l224 -483l221 483h223l-446 -921z" />
<glyph unicode="w" horiz-adv-x="1400" d="M8 862h223l226 -493l243 571l246 -571l223 493h222l-451 -928l-240 555l-241 -555z" />
<glyph unicode="x" horiz-adv-x="1011" d="M10 0l383 467l-309 395h238l190 -252l197 252h243l-319 -395l368 -467h-235l-254 322l-258 -322h-244z" />
<glyph unicode="y" horiz-adv-x="983" d="M8 862h232l262 -495l246 495h225l-686 -1331h-228l336 631z" />
<glyph unicode="z" horiz-adv-x="983" d="M16 0l559 676h-440v186h832l-555 -676h512v-186h-908z" />
<glyph unicode="{" horiz-adv-x="647" d="M84 487v170q61 14 88 52.5t27 115.5v396q0 156 56 222t189 66q29 0 55.5 -2t55.5 -2v-178h-23q-41 0 -66.5 -6t-38.5 -23.5t-18.5 -49t-5.5 -81.5v-354q0 -53 -6 -90t-19 -64.5t-38 -50t-61 -43.5q125 -76 124 -196v-402q0 -51 5.5 -84t18.5 -51t39 -24.5t66 -6.5h9.5 t13.5 2v-178q-25 -2 -49.5 -3t-48.5 -1q-143 -2 -200.5 66.5t-57.5 232.5v436q0 47 -31 83t-84 48z" />
<glyph unicode="|" horiz-adv-x="1024" d="M410 -342v1708h206v-1708h-206z" />
<glyph unicode="}" horiz-adv-x="647" d="M92 -197q8 0 13.5 -1t9.5 -1q41 0 66.5 6.5t38.5 23.5t18.5 49t5.5 83v354q0 51 6 89t19.5 66t38 49.5t61.5 43.5q-125 76 -125 197v401q0 53 -6.5 86t-22.5 50.5t-46 22.5t-77 5v178q25 2 49.5 3t48.5 1q141 2 200 -66.5t59 -232.5v-436q0 -47 30.5 -83t83.5 -48v-170 q-61 -16 -87.5 -54t-26.5 -116v-393q0 -156 -56.5 -222.5t-189.5 -66.5h-55.5t-55.5 4v178z" />
<glyph unicode="~" d="M100 741q63 131 127 183.5t154 52.5q57 0 110.5 -20.5t104.5 -46t104.5 -46t110.5 -20.5t96 29.5t86 107.5l92 -53q-59 -121 -129.5 -176.5t-164.5 -55.5q-57 0 -108.5 21.5t-102 46t-101.5 46t-108 21.5q-53 0 -96.5 -34.5t-86.5 -112.5z" />
<glyph unicode="&#xa3;" d="M53 59q37 61 68 102.5t62.5 67t68.5 38t84 16.5q12 47 16 70.5t4 62.5q0 35 -6 56.5t-24 55.5h-234v146h160q-41 84 -63.5 159.5t-22.5 133.5q0 88 36 164.5t97 134t143 91.5t176 34q199 0 315 -118t124 -327l-201 -72q6 33 3 71t-11 72t-19.5 61.5t-21.5 39.5 q-33 35 -75 56.5t-107 21.5q-111 0 -179.5 -67.5t-68.5 -178.5q0 -33 9 -70.5t23.5 -74.5t33 -71t36.5 -60h269v-146h-207q12 -45 17 -72.5t5 -52.5q0 -29 -6 -59.5t-20 -81.5q66 -23 130 -51.5t134 -28.5q39 0 67.5 25.5t73.5 103.5l164 -98q-59 -125 -128 -178t-171 -53 q-59 0 -116.5 17t-111 36.5t-105.5 37t-103 17.5q-25 0 -43.5 -5t-33.5 -18.5t-30.5 -37t-34.5 -60.5z" />
<glyph unicode="&#xa5;" d="M57 1366h224l299 -547l299 547h225l-248 -451h213v-143h-293l-84 -151h377v-144h-393v-477h-193v477h-391v144h375l-84 151h-291v143h213z" />
<glyph unicode="&#xa6;" horiz-adv-x="1024" d="M410 -342v772h206v-772h-206zM410 594v772h206v-772h-206z" />
<glyph unicode="&#xa7;" d="M170 16h195q12 -109 61 -159t141 -50q88 0 135.5 48.5t47.5 140.5q0 39 -8.5 67.5t-35 51t-73.5 45t-123 53.5q-72 27 -130 56.5t-101 71.5t-67 99.5t-24 143.5q0 100 50.5 177t142.5 118q-160 96 -160 264q0 76 31 142.5t85 115.5t126 77.5t153 28.5q166 0 266.5 -111.5 t108.5 -303.5h-188q-8 117 -52 171t-137 54q-86 0 -140 -52.5t-54 -131.5q0 -66 42 -103t105.5 -63.5t138 -51t138 -64.5t105.5 -103.5t42 -167.5q0 -111 -43 -183.5t-149 -138.5q80 -53 115.5 -113.5t35.5 -144.5t-27.5 -154.5t-77.5 -121t-120 -79t-152 -28.5 q-129 0 -226 55.5t-138 153.5q-10 25 -17.5 43t-11.5 38.5t-6 46.5t-4 62zM383 571q0 -41 16.5 -77.5t44 -64.5t65.5 -43t81 -15t80 15t64.5 43t44 64.5t16.5 77.5t-16.5 78t-44 64.5t-64.5 43t-80 15.5t-81 -15.5t-65.5 -43t-44 -64.5t-16.5 -78z" />
<glyph unicode="&#xa8;" horiz-adv-x="999" d="M178 1120q0 53 38 89t91 36t88 -36t35 -89q0 -51 -36 -88t-87 -37q-53 0 -91 37t-38 88zM549 1120q0 53 37 89t88 36q53 0 90 -36t37 -89q0 -51 -37 -88t-90 -37q-51 0 -88 37t-37 88z" />
<glyph unicode="&#xa9;" horiz-adv-x="1552" d="M68 682q0 145 55 274t150.5 225.5t223.5 153t271 56.5q150 0 280 -55.5t227 -150.5t152.5 -224t55.5 -279q0 -147 -55.5 -276.5t-150.5 -225.5t-223 -151.5t-274 -55.5q-147 0 -277 55.5t-227.5 151.5t-152.5 225.5t-55 276.5zM182 682q0 -127 47 -236.5t128 -192.5 t189.5 -130t231.5 -47t230.5 48t187.5 130t127 192.5t47 235.5q0 127 -47 237.5t-128 192.5t-189.5 129t-231.5 47t-230.5 -48t-187.5 -130t-127 -192.5t-47 -235.5zM367 684q0 86 34.5 163t95 134t140.5 91t170 34q68 0 125 -17.5t117 -46.5v-176q-59 43 -117 72t-133 29 q-57 0 -107.5 -22.5t-88.5 -61.5t-59.5 -91.5t-21.5 -111.5t22.5 -111.5t60.5 -90.5t90.5 -59.5t113.5 -21.5q72 0 129 31t111 74v-180q-119 -63 -242 -64q-92 0 -173 33t-140.5 90t-93 135t-33.5 168z" />
<glyph unicode="&#xab;" horiz-adv-x="1042" d="M82 438l340 451l133 -98l-266 -353l266 -338l-133 -98zM461 438l340 451l133 -98l-266 -353l266 -338l-133 -98z" />
<glyph unicode="&#xac;" horiz-adv-x="1073" d="M41 342v221h973v-436h-221v215h-752z" />
<glyph unicode="&#xad;" horiz-adv-x="395" d="M0 350v174h395v-174h-395z" />
<glyph unicode="&#xae;" horiz-adv-x="1552" d="M68 682q0 145 55 274t150.5 225.5t223.5 153t271 56.5q150 0 280 -55.5t227 -150.5t152.5 -224t55.5 -279q0 -147 -55.5 -276.5t-150.5 -225.5t-223 -151.5t-274 -55.5q-147 0 -277 55.5t-227.5 151.5t-152.5 225.5t-55 276.5zM182 682q0 -127 47 -237.5t128 -192.5 t189.5 -130t231.5 -48t230.5 48t187.5 131t127 193.5t47 235.5q0 127 -47 237.5t-128 192.5t-189.5 129t-231.5 47t-230.5 -48t-187.5 -130t-127 -192.5t-47 -235.5zM522 272v820h162q61 0 121.5 -10.5t109 -38t78 -74.5t29.5 -123q0 -90 -49 -145.5t-127 -86.5l266 -342 h-190l-244 324l-2 -324h-154zM676 729q31 0 64.5 3t62 14.5t48 34t19.5 63.5q0 39 -19.5 60.5t-49 32.5t-63 13t-62.5 2v-223z" />
<glyph unicode="&#xb0;" d="M307 1112q0 57 21.5 107.5t58.5 87t87 58t106 21.5q57 0 107 -21.5t87 -58t58.5 -87t21.5 -107.5q0 -55 -21.5 -105.5t-58.5 -87t-87 -58t-107 -21.5q-55 0 -105.5 21.5t-87.5 58t-58.5 87t-21.5 105.5zM436 1112q0 -61 42 -105t102 -44q59 0 101 44t42 105q0 57 -42 97 t-101 40t-101.5 -40t-42.5 -97z" />
<glyph unicode="&#xb1;" d="M111 0v164h942v-164h-942zM111 629v164h389v381h164v-381h389v-164h-389v-357h-164v357h-389z" />
<glyph unicode="&#xb2;" horiz-adv-x="755" d="M63 547l287 334q39 47 65.5 80.5t42 59.5t21.5 45t6 38q0 51 -35.5 86t-93.5 35q-117 0 -131 -140h-131q14 125 80 190.5t178 65.5q55 0 103.5 -17t84 -49t56 -74t20.5 -91q0 -59 -30.5 -119.5t-74.5 -118t-93 -108.5t-88 -94h288v-123h-555z" />
<glyph unicode="&#xb3;" horiz-adv-x="755" d="M86 766h129q20 -115 133 -115q55 0 91 36t36 89q0 68 -36 95.5t-126 29.5v113q27 0 54.5 3t49 14t35 30.5t13.5 52.5q0 47 -32 77t-83 30q-49 0 -75.5 -25t-36.5 -80h-134q23 121 81.5 171t174.5 50q49 0 92.5 -16t75 -45t49 -69t17.5 -85q0 -106 -80 -164 q90 -61 90 -186q0 -106 -73.5 -173t-190.5 -67q-229 0 -254 234z" />
<glyph unicode="&#xb5;" horiz-adv-x="1069" d="M123 -469v1331h205v-403q0 -78 17 -135.5t46 -95.5t65 -56t72 -18q68 0 108 28.5t61.5 73.5t27.5 102.5t6 112.5v391h201v-862h-201v147q-35 -96 -81 -136t-130 -40q-14 0 -39.5 8.5t-53.5 26t-54.5 44t-44.5 65.5v-584h-205z" />
<glyph unicode="&#xb7;" horiz-adv-x="518" d="M135 436q0 51 36 87t87 36t87 -36t36 -87t-36 -87t-87 -36t-87 36t-36 87z" />
<glyph unicode="&#xb9;" horiz-adv-x="792" d="M199 1239l77 127h211v-819h-139v692h-149z" />
<glyph unicode="&#xbb;" horiz-adv-x="1042" d="M109 100l264 338l-264 353l133 98l340 -451l-340 -436zM487 100l265 338l-265 353l134 98l340 -451l-343 -436z" />
<glyph unicode="&#xbd;" horiz-adv-x="1751" d="M158 1239l78 127h210v-819h-139v692h-149zM436 37l783 1352l96 -54l-783 -1358zM1069 0l299 350q43 49 70.5 85t44 62.5t22.5 47t6 39.5q0 53 -37.5 89t-97.5 36q-121 0 -139 -144h-137q16 133 84.5 202t185.5 69q57 0 108.5 -19.5t89.5 -52.5t59.5 -78t21.5 -96 q0 -61 -33 -125t-79 -123t-98.5 -113.5t-90.5 -99.5h303v-129h-582z" />
<glyph unicode="&#xc4;" horiz-adv-x="1341" d="M8 0l676 1452l651 -1452h-225l-143 332h-584l-154 -332h-221zM381 1630q0 53 37 89t90 36t89 -36t36 -89t-36 -90t-89 -37t-90 37t-37 90zM469 526h414l-203 463zM752 1630q0 53 35.5 89t89.5 36q53 0 90 -36t37 -89t-37 -90t-90 -37t-89 37t-36 90z" />
<glyph unicode="&#xc9;" horiz-adv-x="1024" d="M164 0v1366h754v-195h-547v-327h530v-195h-530v-454h547v-195h-754zM467 1544l244 322l186 -99l-322 -290z" />
<glyph unicode="&#xd6;" horiz-adv-x="1617" d="M94 678q0 147 56.5 277t153.5 226.5t227.5 153t279.5 56.5q145 0 274 -56.5t226.5 -153t154 -225.5t56.5 -274t-56.5 -274t-154 -225.5t-226.5 -153t-274 -56.5q-152 0 -282 54.5t-227 149.5t-152.5 224t-55.5 277zM301 678q0 -106 40 -199.5t108.5 -162t160.5 -108.5 t199 -40q104 0 196.5 40t161 109.5t107.5 163t39 199.5q0 111 -39 205t-106.5 162.5t-160 108.5t-198.5 40q-109 0 -201 -40t-160.5 -109.5t-107.5 -164t-39 -204.5zM506 1630q0 53 37 89t90 36t89 -36t36 -89t-36 -90t-89 -37t-90 37t-37 90zM877 1630q0 53 35.5 89 t88.5 36t90 -36t37 -89t-36.5 -90t-90.5 -37q-53 0 -88.5 37t-35.5 90z" />
<glyph unicode="&#xdc;" horiz-adv-x="1337" d="M164 485v881h207v-823q0 -92 9 -142.5t34 -93.5q37 -66 105.5 -102.5t150.5 -36.5q80 0 149.5 37t106.5 102q25 43 34 93.5t9 142.5v823h207v-881q0 -111 -38 -205t-105.5 -161.5t-161 -106.5t-201.5 -39q-109 0 -202 39t-160.5 106.5t-105.5 162t-38 204.5zM369 1630 q0 53 36.5 89t90.5 36q53 0 89 -36t36 -89t-36 -90t-89 -37t-90 37t-37 90zM739 1630q0 53 36 89t89 36t90 -36t37 -89t-36.5 -90t-90.5 -37q-53 0 -89 37t-36 90z" />
<glyph unicode="&#xdf;" d="M86 684v178h72v217q0 213 105.5 326t303.5 113q86 0 160 -29t128 -80t84 -120.5t30 -151.5q0 -176 -148 -275q117 -51 184.5 -159.5t67.5 -243.5q0 -104 -41 -194.5t-112.5 -155t-172 -101.5t-217.5 -37v193q160 4 250 84t90 221q0 78 -29.5 129t-76.5 82t-108.5 47 t-125.5 23v182q119 4 180.5 58t61.5 155q0 86 -58.5 140t-152.5 54q-80 0 -122 -32.5t-60.5 -85t-20.5 -116t-2 -124.5v-981h-198v684h-72z" />
<glyph unicode="&#xe0;" horiz-adv-x="1085" d="M84 436q0 96 30.5 178t86 142.5t130.5 94.5t161 34q82 0 142 -29t126 -96v102h198v-862h-198v90q-35 -33 -66.5 -55.5t-63.5 -35.5t-67 -19.5t-78 -6.5q-86 0 -159.5 35t-127 97.5t-84 147.5t-30.5 183zM287 428q0 -59 17.5 -110.5t50 -88t75.5 -57t96 -20.5 q111 0 178.5 76.5t67.5 199.5t-67.5 200t-178.5 77q-51 0 -95 -20.5t-75.5 -57.5t-50 -88.5t-18.5 -110.5zM289 1284l186 98l244 -321l-109 -68z" />
<glyph unicode="&#xe2;" horiz-adv-x="1085" d="M84 436q0 96 30.5 178t86 142.5t130.5 94.5t161 34q82 0 142 -29t126 -96v102h198v-862h-198v90q-35 -33 -66.5 -55.5t-63.5 -35.5t-67 -19.5t-78 -6.5q-86 0 -159.5 35t-127 97.5t-84 147.5t-30.5 183zM236 1098l311 284l313 -284l-135 -105l-178 168l-176 -168z M287 428q0 -59 17.5 -110.5t50 -88t75.5 -57t96 -20.5q111 0 178.5 76.5t67.5 199.5t-67.5 200t-178.5 77q-51 0 -95 -20.5t-75.5 -57.5t-50 -88.5t-18.5 -110.5z" />
<glyph unicode="&#xe4;" horiz-adv-x="1085" d="M84 436q0 96 30.5 178t86 142.5t130.5 94.5t161 34q82 0 142 -29t126 -96v102h198v-862h-198v90q-35 -33 -66.5 -55.5t-63.5 -35.5t-67 -19.5t-78 -6.5q-86 0 -159.5 35t-127 97.5t-84 147.5t-30.5 183zM233 1120q0 53 37 89t90 36t89 -36t36 -89t-35.5 -90t-89.5 -37 q-53 0 -90 37t-37 90zM287 428q0 -59 17.5 -110.5t50 -88t75.5 -57t96 -20.5q111 0 178.5 76.5t67.5 199.5t-67.5 200t-178.5 77q-51 0 -95 -20.5t-75.5 -57.5t-50 -88.5t-18.5 -110.5zM604 1120q0 53 36 89t89 36t90 -36t37 -89t-37 -90t-90 -37t-89 37t-36 90z" />
<glyph unicode="&#xe7;" horiz-adv-x="862" d="M84 446q0 90 38 170t102.5 139.5t150.5 94.5t182 35q66 0 122 -14.5t116 -47.5v-264q-68 82 -121 114t-123 32q-117 0 -190.5 -77t-73.5 -198q0 -125 72.5 -201.5t191.5 -76.5q35 0 63.5 7t57 24.5t58.5 45t65 70.5v-262q-70 -37 -123.5 -50.5t-124.5 -13.5 q-100 0 -185.5 35t-146.5 98.5t-96 149.5t-35 190zM289 -383l176 272l164 -67l-211 -271z" />
<glyph unicode="&#xe8;" horiz-adv-x="1001" d="M88 436q0 100 29.5 183t84 142.5t131.5 91.5t173 32q100 0 176 -36t126 -97.5t75.5 -144.5t25.5 -177v-47h-616q8 -104 66.5 -167.5t150.5 -63.5q39 0 78 12t72.5 33.5t60.5 51.5t39 64l158 -88q-70 -117 -169.5 -184.5t-240.5 -67.5q-96 0 -174 33t-132.5 93.5 t-84 146.5t-29.5 190zM250 1284l186 98l244 -321l-109 -68zM305 545h400q-20 78 -71.5 119t-129.5 41q-72 0 -126 -43.5t-73 -116.5z" />
<glyph unicode="&#xe9;" horiz-adv-x="1001" d="M88 436q0 100 29.5 183t84 142.5t131.5 91.5t173 32q100 0 176 -36t126 -97.5t75.5 -144.5t25.5 -177v-47h-616q8 -104 66.5 -167.5t150.5 -63.5q39 0 78 12t72.5 33.5t60.5 51.5t39 64l158 -88q-70 -117 -169.5 -184.5t-240.5 -67.5q-96 0 -174 33t-132.5 93.5 t-84 146.5t-29.5 190zM305 545h400q-20 78 -71.5 119t-129.5 41q-72 0 -126 -43.5t-73 -116.5zM414 1061l243 321l187 -98l-322 -291z" />
<glyph unicode="&#xea;" horiz-adv-x="1001" d="M88 436q0 100 29.5 183t84 142.5t131.5 91.5t173 32q100 0 176 -36t126 -97.5t75.5 -144.5t25.5 -177v-47h-616q8 -104 66.5 -167.5t150.5 -63.5q39 0 78 12t72.5 33.5t60.5 51.5t39 64l158 -88q-70 -117 -169.5 -184.5t-240.5 -67.5q-96 0 -174 33t-132.5 93.5 t-84 146.5t-29.5 190zM195 1098l311 284l313 -284l-135 -105l-178 168l-176 -168zM305 545h400q-20 78 -71.5 119t-129.5 41q-72 0 -126 -43.5t-73 -116.5z" />
<glyph unicode="&#xeb;" horiz-adv-x="1001" d="M88 436q0 100 29.5 183t84 142.5t131.5 91.5t173 32q100 0 176 -36t126 -97.5t75.5 -144.5t25.5 -177v-47h-616q8 -104 66.5 -167.5t150.5 -63.5q39 0 78 12t72.5 33.5t60.5 51.5t39 64l158 -88q-70 -117 -169.5 -184.5t-240.5 -67.5q-96 0 -174 33t-132.5 93.5 t-84 146.5t-29.5 190zM197 1120q0 53 36.5 89t90.5 36q53 0 89 -36t36 -89t-36 -90t-89 -37t-90 37t-37 90zM305 545h400q-20 78 -71.5 119t-129.5 41q-72 0 -126 -43.5t-73 -116.5zM567 1120q0 53 36 89t89 36t90 -36t37 -89t-37 -90t-90 -37t-89 37t-36 90z" />
<glyph unicode="&#xee;" horiz-adv-x="450" d="M-82 1098l311 284l314 -284l-135 -105l-179 168l-176 -168zM127 0v862h199v-862h-199z" />
<glyph unicode="&#xef;" horiz-adv-x="454" d="M-76 1122q0 53 37 89t90 36t89 -36t36 -89t-36 -90t-89 -37t-90 37t-37 90zM127 0v862h199v-862h-199zM295 1122q0 53 36 89t89 36t90 -36t37 -89t-37 -90t-90 -37t-89 37t-36 90z" />
<glyph unicode="&#xf4;" horiz-adv-x="1087" d="M82 428q0 96 36 179t97 144.5t145 97.5t181 36q98 0 182 -36t145.5 -97.5t97 -144.5t35.5 -179t-35.5 -179t-98 -144.5t-146.5 -96.5t-180 -35t-180.5 35t-145.5 96.5t-97 144.5t-36 179zM231 1098l312 284l313 -284l-135 -105l-178 168l-176 -168zM285 428 q0 -125 69.5 -200.5t186.5 -75.5t186.5 75.5t69.5 200.5q0 127 -70 202t-186 75q-117 0 -186.5 -75t-69.5 -202z" />
<glyph unicode="&#xf6;" horiz-adv-x="1087" d="M82 428q0 96 36 179t97 144.5t145 97.5t181 36q98 0 182 -36t145.5 -97.5t97 -144.5t35.5 -179t-35.5 -179t-98 -144.5t-146.5 -96.5t-180 -35t-180.5 35t-145.5 96.5t-97 144.5t-36 179zM231 1120q0 53 37 89t90 36t89 -36t36 -89t-35.5 -90t-89.5 -37q-53 0 -90 37 t-37 90zM285 428q0 -125 69.5 -200.5t186.5 -75.5t186.5 75.5t69.5 200.5q0 127 -70 202t-186 75q-117 0 -186.5 -75t-69.5 -202zM602 1120q0 53 36 89t89 36t90 -36t37 -89t-37 -90t-90 -37t-89 37t-36 90z" />
<glyph unicode="&#xf7;" d="M111 627v164h942v-164h-942zM467 403q0 47 34 81t81 34t80.5 -34t33.5 -81t-33.5 -80.5t-80.5 -33.5t-81 33.5t-34 80.5zM467 1016q0 47 34 80.5t81 33.5t80.5 -33.5t33.5 -80.5t-33.5 -81t-80.5 -34t-81 34t-34 81z" />
<glyph unicode="&#xf9;" horiz-adv-x="987" d="M125 362v500h199v-495q0 -111 41 -163t129 -52q86 0 127 52t41 163v495h198v-500q0 -102 -19.5 -164.5t-70.5 -115.5q-104 -109 -276 -109q-174 0 -279 109q-51 53 -70.5 115.5t-19.5 164.5zM281 1284l186 98l244 -321l-109 -68z" />
<glyph unicode="&#xfb;" horiz-adv-x="987" d="M125 362v500h199v-495q0 -111 41 -163t129 -52q86 0 127 52t41 163v495h198v-500q0 -102 -19.5 -164.5t-70.5 -115.5q-104 -109 -276 -109q-174 0 -279 109q-51 53 -70.5 115.5t-19.5 164.5zM180 1098l312 284l313 -284l-135 -105l-178 168l-177 -168z" />
<glyph unicode="&#xfc;" horiz-adv-x="987" d="M125 362v500h199v-495q0 -111 41 -163t129 -52q86 0 127 52t41 163v495h198v-500q0 -102 -19.5 -164.5t-70.5 -115.5q-104 -109 -276 -109q-174 0 -279 109q-51 53 -70.5 115.5t-19.5 164.5zM188 1120q0 53 37 89t90 36t89 -36t36 -89t-35.5 -90t-89.5 -37q-53 0 -90 37 t-37 90zM559 1120q0 53 36 89t89 36t90 -36t37 -89t-37 -90t-90 -37t-89 37t-36 90z" />
<glyph unicode="&#x153;" horiz-adv-x="1726" d="M86 446q0 90 37 170t100.5 139.5t148.5 94.5t181 35q104 0 192.5 -43t149.5 -125q61 88 143 128t199 40q92 0 181 -42t138 -110q53 -78 68.5 -168t15.5 -182h-628q2 -49 21.5 -91t50 -74t70.5 -49t85 -17q78 0 133 39.5t101 130.5l169 -99q-152 -250 -411 -250 q-100 0 -191.5 44t-144.5 122q-68 -82 -156 -124t-188 -42q-102 0 -187 35t-146.5 98.5t-96.5 149.5t-35 190zM289 436q0 -135 66.5 -209.5t187.5 -74.5t186.5 74.5t65.5 211.5q0 123 -68 195t-180 72q-119 0 -188.5 -72t-69.5 -197zM1026 545h404q-16 78 -66.5 119 t-130.5 41q-86 0 -135 -38t-72 -122z" />
<glyph unicode="&#x2000;" horiz-adv-x="933" />
<glyph unicode="&#x2001;" horiz-adv-x="1866" />
<glyph unicode="&#x2002;" horiz-adv-x="933" />
<glyph unicode="&#x2003;" horiz-adv-x="1866" />
<glyph unicode="&#x2004;" horiz-adv-x="622" />
<glyph unicode="&#x2005;" horiz-adv-x="466" />
<glyph unicode="&#x2006;" horiz-adv-x="311" />
<glyph unicode="&#x2007;" horiz-adv-x="311" />
<glyph unicode="&#x2008;" horiz-adv-x="233" />
<glyph unicode="&#x2009;" horiz-adv-x="373" />
<glyph unicode="&#x200a;" horiz-adv-x="103" />
<glyph unicode="&#x2010;" horiz-adv-x="395" d="M0 350v174h395v-174h-395z" />
<glyph unicode="&#x2011;" horiz-adv-x="395" d="M0 350v174h395v-174h-395z" />
<glyph unicode="&#x2012;" horiz-adv-x="395" d="M0 350v174h395v-174h-395z" />
<glyph unicode="&#x2013;" horiz-adv-x="741" d="M211 350v174h741v-174h-741z" />
<glyph unicode="&#x2014;" horiz-adv-x="1140" d="M14 350v174h1182v-174h-1182z" />
<glyph unicode="&#x2018;" horiz-adv-x="591" d="M102 920l252 505l135 -55l-208 -520z" />
<glyph unicode="&#x2019;" horiz-adv-x="591" d="M102 905l209 520l178 -69l-251 -506z" />
<glyph unicode="&#x201a;" horiz-adv-x="518" d="M18 -264l209 520l179 -70l-252 -505z" />
<glyph unicode="&#x201c;" horiz-adv-x="944" d="M102 920l252 505l135 -55l-208 -520zM457 920l252 505l133 -55l-209 -520z" />
<glyph unicode="&#x201d;" horiz-adv-x="944" d="M102 905l209 520l178 -69l-251 -506zM457 905l209 520l176 -69l-252 -506z" />
<glyph unicode="&#x201e;" horiz-adv-x="868" d="M18 -264l209 520l179 -70l-252 -505zM453 -264l209 520l178 -70l-252 -505z" />
<glyph unicode="&#x2022;" horiz-adv-x="1228" d="M406 586q0 82 57 139t139 57q41 0 78 -15t64.5 -42t43 -62.5t15.5 -76.5t-15.5 -77t-43 -62.5t-64.5 -42t-78 -15.5q-82 0 -139 57.5t-57 139.5z" />
<glyph unicode="&#x2026;" horiz-adv-x="1710" d="M162 96q0 53 35.5 89t87.5 36q51 0 87 -36t36 -89q0 -51 -36 -87t-87 -36t-87 36t-36 87zM731 96q0 53 36 89t87 36q53 0 89 -36t36 -89q0 -51 -36 -87t-89 -36q-51 0 -87 36t-36 87zM1303 96q0 53 35.5 89t86.5 36t87 -36t36 -89q0 -51 -35.5 -87t-87.5 -36 q-51 0 -86.5 36t-35.5 87z" />
<glyph unicode="&#x202f;" horiz-adv-x="373" />
<glyph unicode="&#x2039;" horiz-adv-x="716" d="M82 438l340 451l133 -98l-266 -353l266 -338l-133 -98z" />
<glyph unicode="&#x203a;" horiz-adv-x="743" d="M188 100l265 338l-265 353l134 98l340 -451l-343 -436z" />
<glyph unicode="&#x205f;" horiz-adv-x="466" />
<glyph unicode="&#x20ac;" horiz-adv-x="1347" d="M45 475l37 146h158q-2 16 -2 31.5v31.5q0 45 6 88h-199l37 143h197q37 102 103.5 189.5t153.5 151t192.5 99.5t219.5 36q94 0 167 -16.5t151 -57.5l-49 -193q-66 41 -133.5 56.5t-149.5 15.5q-141 0 -257 -78t-177 -203h667l-32 -143h-682q-8 -41 -9 -94v-28.5t2 -28.5 h654l-35 -146h-582q57 -137 181 -222t288 -85q68 0 127.5 16.5t122.5 55.5v-220q-63 -23 -125.5 -35t-128.5 -12q-123 0 -232.5 37t-198.5 103.5t-153.5 159t-97.5 202.5h-221z" />
<glyph unicode="&#x2122;" horiz-adv-x="1437" d="M-2 1233v133h485v-133h-172v-645h-141v645h-172zM530 588l168 850l258 -576l261 576l165 -850h-143l-74 424l-209 -439l-208 439l-72 -424h-146z" />
<glyph unicode="&#x25fc;" horiz-adv-x="860" d="M0 0v860h860v-860h-860z" />
</font>
</defs>
</svg>
